# xmcd
#
# Track frame offsets: 
#        150
#        15218
#        39143
#        53543
#        68618
#        84368
#        103643
#        117218
#        135968
#        148118
#        168743
#        183293
#
# Disc length: 2744 seconds
#
# Revision: 4
# Processed by: cddbd v1.5.2PL0 Copyright (c) Steve Scherf et al.
# Submitted via: ExactAudioCopy v1.0b4
#
DISCID=890ab60c
DTITLE=Charlie Musselwhite - Stand Back!
DYEAR=1967
DGENRE=blues
TTITLE0=Baby Will You Please Help Me
TTITLE1=No More Lonely Nights
TTITLE2=Cha Cha The Blues
TTITLE3=Christo Redemptor
TTITLE4=Help Me
TTITLE5=Chicken Shack
TTITLE6=Strange Land
TTITLE7=39th And Indiana
TTITLE8=My Baby
TTITLE9=Early In The Morning
TTITLE10=4 P.M.
TTITLE11=Sad Day
EXTD=
EXTT0=
EXTT1=
EXTT2=
EXTT3=
EXTT4=
EXTT5=
EXTT6=
EXTT7=
EXTT8=
EXTT9=
EXTT10=
EXTT11=
PLAYORDER=
